<svg width="19" height="19" viewBox="0 0 19 19" fill="none" xmlns="http://www.w3.org/2000/svg">
<rect x="1" y="3" width="17" height="13" fill="#DC5911"/>
<path d="M1.78127 2.375H17.2187C18.201 2.375 19 3.17401 19 4.15626V14.8438C19 15.826 18.201 16.625 17.2187 16.625H1.78127C0.799019 16.625 3.8147e-06 15.826 3.8147e-06 14.8438V4.15626C3.8147e-06 3.17401 0.799019 2.375 1.78127 2.375ZM1.78127 3.56249C1.7006 3.56249 1.62385 3.57923 1.55369 3.60846L9.5 10.4956L17.4464 3.60846C17.3762 3.57927 17.2994 3.56249 17.2188 3.56249H1.78127ZM1.78127 15.4375H17.2187C17.5463 15.4375 17.8125 15.1714 17.8125 14.8437V4.86306L9.88908 11.73C9.77715 11.8269 9.63858 11.875 9.5 11.875C9.36143 11.875 9.22285 11.8269 9.11093 11.73L1.1875 4.86306V14.8438C1.18754 15.1714 1.45367 15.4375 1.78127 15.4375Z" fill="#2A2725"/>
</svg>
