<svg width="28" height="28" viewBox="0 0 28 28" fill="none" xmlns="http://www.w3.org/2000/svg">
<path d="M5.5 2.89976C5.5 4.20924 4.39686 5.29953 3 5.29953C1.60314 5.29953 0.5 4.20924 0.5 2.89976C0.5 1.59029 1.60314 0.5 3 0.5C4.39686 0.5 5.5 1.59029 5.5 2.89976Z" stroke="white"/>
<path d="M16.5 2.89976C16.5 4.20924 15.3969 5.29953 14 5.29953C12.6031 5.29953 11.5 4.20924 11.5 2.89976C11.5 1.59029 12.6031 0.5 14 0.5C15.3969 0.5 16.5 1.59029 16.5 2.89976Z" stroke="white"/>
<path d="M27.5 2.89976C27.5 4.20924 26.3969 5.29953 25 5.29953C23.6031 5.29953 22.5 4.20924 22.5 2.89976C22.5 1.59029 23.6031 0.5 25 0.5C26.3969 0.5 27.5 1.59029 27.5 2.89976Z" stroke="white"/>
<path d="M5.5 13.5326C5.5 14.842 4.39686 15.9323 3 15.9323C1.60314 15.9323 0.5 14.842 0.5 13.5326C0.5 12.2231 1.60314 11.1328 3 11.1328C4.39686 11.1328 5.5 12.2231 5.5 13.5326Z" stroke="white"/>
<path d="M16.5 13.5326C16.5 14.842 15.3969 15.9323 14 15.9323C12.6031 15.9323 11.5 14.842 11.5 13.5326C11.5 12.2231 12.6031 11.1328 14 11.1328C15.3969 11.1328 16.5 12.2231 16.5 13.5326Z" stroke="white"/>
<path d="M27.5 13.5326C27.5 14.842 26.3969 15.9323 25 15.9323C23.6031 15.9323 22.5 14.842 22.5 13.5326C22.5 12.2231 23.6031 11.1328 25 11.1328C26.3969 11.1328 27.5 12.2231 27.5 13.5326Z" stroke="white"/>
<path d="M5.5 24.1654C5.5 25.4749 4.39686 26.5652 3 26.5652C1.60314 26.5652 0.5 25.4749 0.5 24.1654C0.5 22.8559 1.60314 21.7656 3 21.7656C4.39686 21.7656 5.5 22.8559 5.5 24.1654Z" stroke="white"/>
<path d="M16.5 24.1654C16.5 25.4749 15.3969 26.5652 14 26.5652C12.6031 26.5652 11.5 25.4749 11.5 24.1654C11.5 22.8559 12.6031 21.7656 14 21.7656C15.3969 21.7656 16.5 22.8559 16.5 24.1654Z" stroke="white"/>
<path d="M27.5 24.1654C27.5 25.4749 26.3969 26.5652 25 26.5652C23.6031 26.5652 22.5 25.4749 22.5 24.1654C22.5 22.8559 23.6031 21.7656 25 21.7656C26.3969 21.7656 27.5 22.8559 27.5 24.1654Z" stroke="white"/>
</svg>
