<svg width="10" height="10" viewBox="0 0 10 10" fill="none" xmlns="http://www.w3.org/2000/svg">
<path d="M9.97393 3.83232C9.90847 3.62983 9.72887 3.48602 9.51639 3.46687L6.63011 3.20479L5.4888 0.53344C5.40465 0.337665 5.21299 0.210938 5.00005 0.210938C4.78711 0.210938 4.59545 0.337665 4.5113 0.533898L3.36999 3.20479L0.483257 3.46687C0.271154 3.48647 0.0920116 3.62983 0.0261682 3.83232C-0.0396751 4.03481 0.0211327 4.25691 0.181583 4.39691L2.36326 6.31026L1.71994 9.14412C1.67286 9.35248 1.75374 9.56787 1.92662 9.69284C2.01955 9.75998 2.12827 9.79416 2.23791 9.79416C2.33244 9.79416 2.42621 9.76868 2.51036 9.71832L5.00005 8.23032L7.48882 9.71832C7.67094 9.82788 7.90052 9.81789 8.07302 9.69284C8.24598 9.56749 8.32678 9.35203 8.27971 9.14412L7.63638 6.31026L9.81806 4.39729C9.97851 4.25691 10.0398 4.03519 9.97393 3.83232Z" fill="#FFD54F"/>
</svg>
